<svg xmlns="http://www.w3.org/2000/svg" xmlns:xlink="http://www.w3.org/1999/xlink" width="15" height="34"><symbol id="sprite-icon-arrow" viewBox="0 0 15 10"><title>icon-arrow</title><g fill-rule="evenodd" transform="rotate(-45 2.5 1.036)"><rect width="3" height="10" y=".5" rx="1"/><rect width="3" height="10" x="3.5" y="4" rx="1" transform="rotate(90 5 9)"/></g></symbol><use xlink:href="#sprite-icon-arrow" width="15" height="10"/><symbol id="sprite-icon-minus" viewBox="0 0 12 12"><title>icon-minus</title><path d="M12 6a1 1 0 01-1 1H1a1 1 0 010-2h10a1 1 0 011 1z" fill-rule="evenodd"/></symbol><use xlink:href="#sprite-icon-minus" y="10" width="12" height="12"/><symbol id="sprite-icon-plus" viewBox="0 0 12 12"><title>icon-plus</title><g fill-rule="evenodd"><rect width="2" height="12" x="5" rx="1"/><path d="M12 6a1 1 0 01-1 1H1a1 1 0 010-2h10a1 1 0 011 1z"/></g></symbol><use xlink:href="#sprite-icon-plus" y="22" width="12" height="12"/></svg>